<svg xmlns="http://www.w3.org/2000/svg" viewBox="0 0 301.81448 63.00552"><title>bloglogo</title><path d="M1.519,1.94238h1.5625v59.0625H40.894v1.5625H1.519Z" transform="translate(-1.01904 -0.60354)" style="stroke:#000;stroke-miterlimit:10"/><path d="M49.019,2.25488l1.25-.9375,4.6875,6.875-1.25.9375Zm2.1875,15.9375H52.769v44.375h-1.5625Z" transform="translate(-1.01904 -0.60354)" style="stroke:#000;stroke-miterlimit:10"/><path d="M102.144,36.31738v26.25h-1.5625v-26.25q0-17.18262-14.6875-17.1875-15.9375,1.56738-17.1875,22.5v20.9375H67.144v-44.375h1.5625v13.75q4.99512-14.0625,17.1875-14.375Q102.13916,17.56738,102.144,36.31738Z" transform="translate(-1.01904 -0.60354)" style="stroke:#000;stroke-miterlimit:10"/><path d="M150.89453,28.81738l-1.5625.625q-4.37988-9.99756-15.938-10.3125-14.0625.31494-15,9.6875-.62988,7.19238,15.625,10.3125,18.75074,3.12744,17.813,12.5-.31641,11.25-17.813,11.25-15,0-19.0625-12.8125l1.5625-.625q3.43506,12.1875,17.5,12.1875,16.24512,0,16.25049-10,.9375-7.5-16.563-10.9375-17.18994-2.8125-16.5625-11.875,1.24512-10.62012,16.25-11.25Q145.88916,18.19726,150.89453,28.81738Z" transform="translate(-1.01904 -0.60354)" style="stroke:#000;stroke-miterlimit:10"/><path d="M203.707,41.31738H164.332q1.56006,19.37988,19.0625,20.3125,14.68506-.31494,18.125-11.5625l1.5625.625q-4.06494,11.87988-19.6875,12.1875-19.6875-1.25244-20.625-22.5,1.24512-21.24756,20.3125-22.8125Q203.39209,18.50488,203.707,41.31738Zm-39.375-1.5625h37.8125q-.9375-20.31006-19.0625-20.625Q165.89209,20.38232,164.332,39.75488Z" transform="translate(-1.01904 -0.60354)" style="stroke:#000;stroke-miterlimit:10"/><path d="M252.14453,36.31738v26.25H250.582v-26.25q0-17.18262-14.6875-17.1875-15.9375,1.56738-17.1875,22.5v20.9375h-1.5625v-44.375h1.5625v13.75q4.99512-14.0625,17.1875-14.375Q252.13965,17.56738,252.14453,36.31738Z" transform="translate(-1.01904 -0.60354)" style="stroke:#000;stroke-miterlimit:10"/><path d="M302.14453,61.62988l-1.25,1.25-19.375-21.875-19.375,21.875-1.25-1.25,19.6875-21.875-18.125-20.625,1.25-.9375,17.8125,20.3125,17.8125-20.3125,1.25.9375-18.125,20.625Z" transform="translate(-1.01904 -0.60354)" style="stroke:#000;stroke-miterlimit:10"/></svg>